# xmcd
#
# Track frame offsets: 
#        150
#        11862
#        23953
#        34855
#        45817
#        56178
#        68113
#        77093
#        90259
#        102316
#        113382
#        123939
#        133345
#        144937
#        157539
#        169075
#        180791
#        193457
#        203519
#        215781
#        227446
#        242477
#        254414
#        267300
#        278219
#
# Disc length: 3895 seconds
#
# Revision: 4
# Processed by: cddbd v1.5.2PL0 Copyright (c) Steve Scherf et al.
# Submitted via: ExactAudioCopy v1.0b6
#
DISCID=4d0f3519
DTITLE=Rhythm 'n' Blues - Rhythm 'n' Blues:  Early Doo-Wop CD3
DYEAR=2005
DGENRE=Rhythm and Blues
TTITLE0=The Treniers - Hi-Yo-Silver
TTITLE1=The Chrods - Cross Over the Bridge
TTITLE2=The Penguins - Don't Do It
TTITLE3=The Sparrows - Hey
TTITLE4=The Ravens - Gotta Find My Baby
TTITLE5=Fat Man Matthews and The Four Kittens - Later Baby
TTITLE6=The Thunderbirds - Baby Let's Play House
TTITLE7=The Harptones - Loving a Girl Like You
TTITLE8=The Du-Droppers - Go Back
TTITLE9=Lee Andrews and The Hearts - Much Too Much
TTITLE10=The Barons - Boom Boom
TTITLE11=The Valentines - Lily Maybelle
TTITLE12=The Crickets - Fine as Wine
TTITLE13=The Larks - Honey from the Bee
TTITLE14=The Rockets - Big Leg Mama
TTITLE15=The Lamplighters - Salty Dog
TTITLE16=The Feathers - Why Don't You Write Me
TTITLE17=The Platters - Hey Now
TTITLE18=The Rockers - Angel Child
TTITLE19=El Dorados - At My Front Door
TTITLE20=The Velvets - I
TTITLE21=The Four Jacks - The Last of the Good Rocking Men
TTITLE22=The Five Scamps - Red Hot
TTITLE23=The Five Crowns - $19.50 Bus
TTITLE24=The Four Buddies - I'd Climb the Highest Mountain (ft Dolly C
TTITLE24=ooper)
EXTD=(c) 2005 YEAR: 2005
EXTT0=
EXTT1=
EXTT2=
EXTT3=
EXTT4=
EXTT5=
EXTT6=
EXTT7=
EXTT8=
EXTT9=
EXTT10=
EXTT11=
EXTT12=
EXTT13=
EXTT14=
EXTT15=
EXTT16=
EXTT17=
EXTT18=
EXTT19=
EXTT20=
EXTT21=
EXTT22=
EXTT23=
EXTT24=
PLAYORDER=
